<?xml version="1.0" encoding="UTF-8" standalone="no"?>
<!DOCTYPE svg PUBLIC "-//W3C//DTD SVG 1.1//EN"
 "http://www.w3.org/Graphics/SVG/1.1/DTD/svg11.dtd">
<!-- Generated by graphviz version 2.40.1 (20161225.0304)
 -->
<!-- Title: state transitions Pages: 1 -->
<svg width="804pt" height="540pt"
 viewBox="0.00 0.00 804.00 540.00" xmlns="http://www.w3.org/2000/svg" xmlns:xlink="http://www.w3.org/1999/xlink">
<g id="graph0" class="graph" transform="scale(1 1) rotate(0) translate(4 536)">
<title>state transitions</title>
<polygon fill="#ffffff" stroke="transparent" points="-4,4 -4,-536 800,-536 800,4 -4,4"/>
<g id="clust1" class="cluster state regular">
<title>cluster_next_state</title>
<path fill="none" stroke="#000000" stroke-width="2" d="M20,-8C20,-8 776,-8 776,-8 782,-8 788,-14 788,-20 788,-20 788,-512 788,-512 788,-518 782,-524 776,-524 776,-524 20,-524 20,-524 14,-524 8,-518 8,-512 8,-512 8,-20 8,-20 8,-14 14,-8 20,-8"/>
<text text-anchor="start" x="370.8208" y="-505.2" font-family="Helvetica,sans-Serif" font-size="12.00" fill="#000000">next_state</text>
</g>
<!-- next_state -->
<!-- S_IDLE -->
<g id="node2" class="node state regular">
<title>S_IDLE</title>
<polygon fill="#ffffff" fill-opacity="0.003922" stroke="transparent" stroke-width="2" points="373.5,-486 310.5,-486 310.5,-450 373.5,-450 373.5,-486"/>
<text text-anchor="start" x="321.8276" y="-464.2" font-family="Helvetica,sans-Serif" font-size="12.00" fill="#000000">S_IDLE</text>
<path fill="none" stroke="#000000" stroke-width="2" d="M322.8333,-451C322.8333,-451 361.1667,-451 361.1667,-451 366.8333,-451 372.5,-456.6667 372.5,-462.3333 372.5,-462.3333 372.5,-473.6667 372.5,-473.6667 372.5,-479.3333 366.8333,-485 361.1667,-485 361.1667,-485 322.8333,-485 322.8333,-485 317.1667,-485 311.5,-479.3333 311.5,-473.6667 311.5,-473.6667 311.5,-462.3333 311.5,-462.3333 311.5,-456.6667 317.1667,-451 322.8333,-451"/>
</g>
<!-- S_IDLE&#45;&gt;S_IDLE -->
<g id="edge2" class="edge transition">
<title>S_IDLE&#45;&gt;S_IDLE</title>
<path fill="none" stroke="#000000" d="M373.59,-472.8604C385.5814,-473.0479 395.5,-471.4277 395.5,-468 395.5,-465.6434 390.8119,-464.1412 383.9852,-463.4934"/>
<polygon fill="#000000" stroke="#000000" points="383.7033,-459.9819 373.59,-463.1396 383.4651,-466.9778 383.7033,-459.9819"/>
<text text-anchor="start" x="395.5" y="-465" font-family="Helvetica,sans-Serif" font-size="10.00" fill="#000000">not (i_data_in_valid) &#160;&#160;</text>
</g>
<!-- S_STORE -->
<g id="node3" class="node state regular">
<title>S_STORE</title>
<polygon fill="#ffffff" fill-opacity="0.003922" stroke="transparent" stroke-width="2" points="293,-404 215,-404 215,-368 293,-368 293,-404"/>
<text text-anchor="start" x="225.9962" y="-382.2" font-family="Helvetica,sans-Serif" font-size="12.00" fill="#000000">S_STORE</text>
<path fill="none" stroke="#000000" stroke-width="2" d="M227.3333,-369C227.3333,-369 280.6667,-369 280.6667,-369 286.3333,-369 292,-374.6667 292,-380.3333 292,-380.3333 292,-391.6667 292,-391.6667 292,-397.3333 286.3333,-403 280.6667,-403 280.6667,-403 227.3333,-403 227.3333,-403 221.6667,-403 216,-397.3333 216,-391.6667 216,-391.6667 216,-380.3333 216,-380.3333 216,-374.6667 221.6667,-369 227.3333,-369"/>
</g>
<!-- S_IDLE&#45;&gt;S_STORE -->
<g id="edge1" class="edge transition">
<title>S_IDLE&#45;&gt;S_STORE</title>
<path fill="none" stroke="#000000" d="M322.4699,-449.8015C310.2794,-438.4422 294.4143,-423.6588 281.0258,-411.1831"/>
<polygon fill="#000000" stroke="#000000" points="283.1776,-408.4042 273.4755,-404.1476 278.4055,-413.5255 283.1776,-408.4042"/>
<text text-anchor="start" x="303" y="-424" font-family="Helvetica,sans-Serif" font-size="10.00" fill="#000000">i_data_in_valid &#160;&#160;</text>
</g>
<!-- S_STORE&#45;&gt;S_STORE -->
<g id="edge4" class="edge transition">
<title>S_STORE&#45;&gt;S_STORE</title>
<path fill="none" stroke="#000000" d="M293.0143,-390.8723C305.3043,-390.7979 315,-389.1738 315,-386 315,-383.7684 310.2066,-382.303 303.0883,-381.6037"/>
<polygon fill="#000000" stroke="#000000" points="303.1683,-378.1037 293.0143,-381.1277 302.8379,-385.0958 303.1683,-378.1037"/>
<text text-anchor="start" x="315" y="-383" font-family="Helvetica,sans-Serif" font-size="10.00" fill="#000000">not (sort_end) &#160;&#160;</text>
</g>
<!-- S_DELAY -->
<g id="node7" class="node state regular">
<title>S_DELAY</title>
<polygon fill="#ffffff" fill-opacity="0.003922" stroke="transparent" stroke-width="2" points="403,-322 327,-322 327,-286 403,-286 403,-322"/>
<text text-anchor="start" x="337.9922" y="-300.2" font-family="Helvetica,sans-Serif" font-size="12.00" fill="#000000">S_DELAY</text>
<path fill="none" stroke="#000000" stroke-width="2" d="M339.3333,-287C339.3333,-287 390.6667,-287 390.6667,-287 396.3333,-287 402,-292.6667 402,-298.3333 402,-298.3333 402,-309.6667 402,-309.6667 402,-315.3333 396.3333,-321 390.6667,-321 390.6667,-321 339.3333,-321 339.3333,-321 333.6667,-321 328,-315.3333 328,-309.6667 328,-309.6667 328,-298.3333 328,-298.3333 328,-292.6667 333.6667,-287 339.3333,-287"/>
</g>
<!-- S_STORE&#45;&gt;S_DELAY -->
<g id="edge3" class="edge transition">
<title>S_STORE&#45;&gt;S_DELAY</title>
<path fill="none" stroke="#000000" d="M278.6345,-367.8015C294.4424,-356.1237 315.1486,-340.8272 332.3236,-328.1393"/>
<polygon fill="#000000" stroke="#000000" points="334.4707,-330.9046 340.4344,-322.1476 330.3114,-325.2743 334.4707,-330.9046"/>
<text text-anchor="start" x="316" y="-342" font-family="Helvetica,sans-Serif" font-size="10.00" fill="#000000">sort_end &#160;&#160;</text>
</g>
<!-- S_COLUMN -->
<g id="node4" class="node state regular">
<title>S_COLUMN</title>
<polygon fill="#ffffff" fill-opacity="0.003922" stroke="transparent" stroke-width="2" points="307,-240 219,-240 219,-204 307,-204 307,-240"/>
<text text-anchor="start" x="229.6688" y="-218.2" font-family="Helvetica,sans-Serif" font-size="12.00" fill="#000000">S_COLUMN</text>
<path fill="none" stroke="#000000" stroke-width="2" d="M231.3333,-205C231.3333,-205 294.6667,-205 294.6667,-205 300.3333,-205 306,-210.6667 306,-216.3333 306,-216.3333 306,-227.6667 306,-227.6667 306,-233.3333 300.3333,-239 294.6667,-239 294.6667,-239 231.3333,-239 231.3333,-239 225.6667,-239 220,-233.3333 220,-227.6667 220,-227.6667 220,-216.3333 220,-216.3333 220,-210.6667 225.6667,-205 231.3333,-205"/>
</g>
<!-- S_GROUP -->
<g id="node5" class="node state regular">
<title>S_GROUP</title>
<polygon fill="#ffffff" fill-opacity="0.003922" stroke="transparent" stroke-width="2" points="303,-146 223,-146 223,-110 303,-110 303,-146"/>
<text text-anchor="start" x="233.6642" y="-124.2" font-family="Helvetica,sans-Serif" font-size="12.00" fill="#000000">S_GROUP</text>
<path fill="none" stroke="#000000" stroke-width="2" d="M235.3333,-111C235.3333,-111 290.6667,-111 290.6667,-111 296.3333,-111 302,-116.6667 302,-122.3333 302,-122.3333 302,-133.6667 302,-133.6667 302,-139.3333 296.3333,-145 290.6667,-145 290.6667,-145 235.3333,-145 235.3333,-145 229.6667,-145 224,-139.3333 224,-133.6667 224,-133.6667 224,-122.3333 224,-122.3333 224,-116.6667 229.6667,-111 235.3333,-111"/>
</g>
<!-- S_COLUMN&#45;&gt;S_GROUP -->
<g id="edge5" class="edge transition">
<title>S_COLUMN&#45;&gt;S_GROUP</title>
<path fill="none" stroke="#000000" d="M218.753,-220.4884C166.9487,-217.6787 85.7841,-209.6821 66.79,-187 59.9417,-178.822 59.9417,-171.178 66.79,-163 85.0656,-141.176 160.8969,-132.9473 212.7528,-129.8533"/>
<polygon fill="#000000" stroke="#000000" points="212.9881,-133.3457 222.7802,-129.3004 212.6027,-126.3563 212.9881,-133.3457"/>
<text text-anchor="start" x="66" y="-172" font-family="Helvetica,sans-Serif" font-size="10.00" fill="#000000">column_cnt_reg != column_cnt_max &#160;&#160;</text>
</g>
<!-- S_COLUMN&#45;&gt;S_DELAY -->
<g id="edge6" class="edge transition">
<title>S_COLUMN&#45;&gt;S_DELAY</title>
<path fill="none" stroke="#000000" d="M218.9824,-224.9376C151.5345,-230.2829 32.6588,-243.4799 55.456,-269 72.5377,-288.122 234.1748,-298.12 316.8268,-302.0185"/>
<polygon fill="#000000" stroke="#000000" points="316.8306,-305.5223 326.9809,-302.4855 317.1522,-298.5297 316.8306,-305.5223"/>
<text text-anchor="start" x="55" y="-260" font-family="Helvetica,sans-Serif" font-size="10.00" fill="#000000">not (column_cnt_reg != column_cnt_max) &#160;&#160;</text>
</g>
<!-- S_GROUP&#45;&gt;S_COLUMN -->
<g id="edge8" class="edge transition">
<title>S_GROUP&#45;&gt;S_COLUMN</title>
<path fill="none" stroke="#000000" d="M263,-146.0685C263,-159.5785 263,-178.3082 263,-193.785"/>
<polygon fill="#000000" stroke="#000000" points="259.5001,-193.8758 263,-203.8759 266.5001,-193.8759 259.5001,-193.8758"/>
<text text-anchor="start" x="263" y="-178" font-family="Helvetica,sans-Serif" font-size="10.00" fill="#000000">not (internal_cnt_reg != internal_cnt_max) &#160;&#160;</text>
<text text-anchor="start" x="263" y="-166" font-family="Helvetica,sans-Serif" font-size="10.00" fill="#000000">group_cnt_max == 0 &#160;&#160;</text>
</g>
<!-- S_GROUP&#45;&gt;S_COLUMN -->
<g id="edge10" class="edge transition">
<title>S_GROUP&#45;&gt;S_COLUMN</title>
<path fill="none" stroke="#000000" d="M303.3401,-129.191C355.5366,-131.6801 442.1524,-139.357 462,-163 468.8582,-171.1697 468.8582,-178.8303 462,-187 443.8686,-208.5986 370.0168,-216.8729 317.587,-220.04"/>
<polygon fill="#000000" stroke="#000000" points="317.1991,-216.5561 307.4096,-220.6077 317.589,-223.5452 317.1991,-216.5561"/>
<text text-anchor="start" x="467" y="-178" font-family="Helvetica,sans-Serif" font-size="10.00" fill="#000000">not (group_cnt_max == 0) &#160;&#160;</text>
<text text-anchor="start" x="467" y="-166" font-family="Helvetica,sans-Serif" font-size="10.00" fill="#000000">not (group_cnt_reg != group_cnt_max) &#160;&#160;</text>
</g>
<!-- S_INTERNAL -->
<g id="node6" class="node state regular">
<title>S_INTERNAL</title>
<polygon fill="#ffffff" fill-opacity="0.003922" stroke="transparent" stroke-width="2" points="311,-52 215,-52 215,-16 311,-16 311,-52"/>
<text text-anchor="start" x="225.998" y="-30.2" font-family="Helvetica,sans-Serif" font-size="12.00" fill="#000000">S_INTERNAL</text>
<path fill="none" stroke="#000000" stroke-width="2" d="M227.3333,-17C227.3333,-17 298.6667,-17 298.6667,-17 304.3333,-17 310,-22.6667 310,-28.3333 310,-28.3333 310,-39.6667 310,-39.6667 310,-45.3333 304.3333,-51 298.6667,-51 298.6667,-51 227.3333,-51 227.3333,-51 221.6667,-51 216,-45.3333 216,-39.6667 216,-39.6667 216,-28.3333 216,-28.3333 216,-22.6667 221.6667,-17 227.3333,-17"/>
</g>
<!-- S_GROUP&#45;&gt;S_INTERNAL -->
<g id="edge7" class="edge transition">
<title>S_GROUP&#45;&gt;S_INTERNAL</title>
<path fill="none" stroke="#000000" d="M222.9962,-126.7566C171.2352,-124.2081 85.3445,-116.4642 65.676,-93 58.8237,-84.8254 58.8237,-77.1746 65.676,-69 83.1723,-48.1272 153.0714,-39.6941 204.733,-36.2921"/>
<polygon fill="#000000" stroke="#000000" points="205.0335,-39.7803 214.8013,-35.6765 204.6063,-32.7934 205.0335,-39.7803"/>
<text text-anchor="start" x="65" y="-84" font-family="Helvetica,sans-Serif" font-size="10.00" fill="#000000">internal_cnt_reg != internal_cnt_max &#160;&#160;</text>
<text text-anchor="start" x="65" y="-72" font-family="Helvetica,sans-Serif" font-size="10.00" fill="#000000">group_cnt_max == 0 &#160;&#160;</text>
</g>
<!-- S_GROUP&#45;&gt;S_INTERNAL -->
<g id="edge9" class="edge transition">
<title>S_GROUP&#45;&gt;S_INTERNAL</title>
<path fill="none" stroke="#000000" d="M263,-109.8759C263,-96.3516 263,-77.6192 263,-62.1514"/>
<polygon fill="#000000" stroke="#000000" points="266.5001,-62.0685 263,-52.0685 259.5001,-62.0685 266.5001,-62.0685"/>
<text text-anchor="start" x="263" y="-78" font-family="Helvetica,sans-Serif" font-size="10.00" fill="#000000">group_cnt_reg != group_cnt_max &#160;&#160;</text>
</g>
<!-- S_INTERNAL&#45;&gt;S_GROUP -->
<g id="edge12" class="edge transition">
<title>S_INTERNAL&#45;&gt;S_GROUP</title>
<path fill="none" stroke="#000000" d="M311.0982,-37.8973C353.2764,-42.4317 409.9991,-51.6285 424,-69 430.6936,-77.305 430.6936,-84.695 424,-93 410.2365,-110.0771 355.1873,-119.2542 313.2555,-123.868"/>
<polygon fill="#000000" stroke="#000000" points="312.7646,-120.4001 303.1813,-124.9181 313.4903,-127.3624 312.7646,-120.4001"/>
<text text-anchor="start" x="429" y="-78" font-family="Helvetica,sans-Serif" font-size="10.00" fill="#000000">not (internal_cnt != internal_cnt_max) &#160;&#160;</text>
</g>
<!-- S_INTERNAL&#45;&gt;S_INTERNAL -->
<g id="edge11" class="edge transition">
<title>S_INTERNAL&#45;&gt;S_INTERNAL</title>
<path fill="none" stroke="#000000" d="M311.0939,-38.8247C323.5828,-38.5282 333,-36.9199 333,-34 333,-31.9469 328.3443,-30.5423 321.2386,-29.7862"/>
<polygon fill="#000000" stroke="#000000" points="321.2863,-26.2828 311.0939,-29.1753 320.8654,-33.2702 321.2863,-26.2828"/>
<text text-anchor="start" x="333" y="-31" font-family="Helvetica,sans-Serif" font-size="10.00" fill="#000000">internal_cnt != internal_cnt_max &#160;&#160;</text>
</g>
<!-- S_DELAY&#45;&gt;S_IDLE -->
<g id="edge15" class="edge transition">
<title>S_DELAY&#45;&gt;S_IDLE</title>
<path fill="none" stroke="#000000" d="M403.3386,-316.321C415.0977,-322.6521 425,-331.8789 425,-345 425,-427 425,-427 425,-427 425,-437.3137 404.1384,-447.5911 383.3328,-455.2763"/>
<polygon fill="#000000" stroke="#000000" points="382.1216,-451.9921 373.8526,-458.6158 384.4474,-458.5945 382.1216,-451.9921"/>
<text text-anchor="start" x="425" y="-383" font-family="Helvetica,sans-Serif" font-size="10.00" fill="#000000">i_output_end || output_end_reg &#160;&#160;</text>
</g>
<!-- S_DELAY&#45;&gt;S_COLUMN -->
<g id="edge13" class="edge transition">
<title>S_DELAY&#45;&gt;S_COLUMN</title>
<path fill="none" stroke="#000000" d="M326.9742,-290.6131C314.9599,-285.1634 302.2176,-277.9932 292.199,-269 285.9664,-263.4053 280.5922,-256.1697 276.2148,-249.06"/>
<polygon fill="#000000" stroke="#000000" points="279.1957,-247.2214 271.2135,-240.2547 273.109,-250.6786 279.1957,-247.2214"/>
<text text-anchor="start" x="292" y="-260" font-family="Helvetica,sans-Serif" font-size="10.00" fill="#000000">i_store_end || store_end_reg &#160;&#160;</text>
</g>
<!-- S_DELAY&#45;&gt;S_DELAY -->
<g id="edge16" class="edge transition">
<title>S_DELAY&#45;&gt;S_DELAY</title>
<path fill="none" stroke="#000000" d="M403.0841,-308.8738C415.3101,-308.8238 425,-307.1992 425,-304 425,-301.7505 420.2094,-300.2796 413.1151,-299.587"/>
<polygon fill="#000000" stroke="#000000" points="413.2342,-296.0889 403.0841,-299.1262 412.9129,-303.0815 413.2342,-296.0889"/>
<text text-anchor="start" x="425" y="-313" font-family="Helvetica,sans-Serif" font-size="10.00" fill="#000000">not (i_store_end || store_end_reg) &#160;&#160;</text>
<text text-anchor="start" x="425" y="-301" font-family="Helvetica,sans-Serif" font-size="10.00" fill="#000000">not (i_cal_end || cal_end_reg) &#160;&#160;</text>
<text text-anchor="start" x="425" y="-289" font-family="Helvetica,sans-Serif" font-size="10.00" fill="#000000">not (i_output_end || output_end_reg) &#160;&#160;</text>
</g>
<!-- S_OUTPUT -->
<g id="node8" class="node state regular">
<title>S_OUTPUT</title>
<polygon fill="#ffffff" fill-opacity="0.003922" stroke="transparent" stroke-width="2" points="559.5,-240 474.5,-240 474.5,-204 559.5,-204 559.5,-240"/>
<text text-anchor="start" x="485.5008" y="-218.2" font-family="Helvetica,sans-Serif" font-size="12.00" fill="#000000">S_OUTPUT</text>
<path fill="none" stroke="#000000" stroke-width="2" d="M486.8333,-205C486.8333,-205 547.1667,-205 547.1667,-205 552.8333,-205 558.5,-210.6667 558.5,-216.3333 558.5,-216.3333 558.5,-227.6667 558.5,-227.6667 558.5,-233.3333 552.8333,-239 547.1667,-239 547.1667,-239 486.8333,-239 486.8333,-239 481.1667,-239 475.5,-233.3333 475.5,-227.6667 475.5,-227.6667 475.5,-216.3333 475.5,-216.3333 475.5,-210.6667 481.1667,-205 486.8333,-205"/>
</g>
<!-- S_DELAY&#45;&gt;S_OUTPUT -->
<g id="edge14" class="edge transition">
<title>S_DELAY&#45;&gt;S_OUTPUT</title>
<path fill="none" stroke="#000000" d="M398.7337,-285.8015C421.1468,-273.7103 450.751,-257.7396 474.733,-244.8019"/>
<polygon fill="#000000" stroke="#000000" points="476.4832,-247.8346 483.6224,-240.0063 473.1596,-241.6739 476.4832,-247.8346"/>
<text text-anchor="start" x="451" y="-260" font-family="Helvetica,sans-Serif" font-size="10.00" fill="#000000">i_cal_end || cal_end_reg &#160;&#160;</text>
</g>
<!-- S_OUTPUT&#45;&gt;S_DELAY -->
<g id="edge18" class="edge transition">
<title>S_OUTPUT&#45;&gt;S_DELAY</title>
<path fill="none" stroke="#000000" d="M559.6651,-240.0224C572.9449,-248.163 582.0163,-258.3398 573,-269 562.794,-281.0669 471.7641,-292.7754 413.5594,-299.1215"/>
<polygon fill="#000000" stroke="#000000" points="413.0245,-295.6587 403.4549,-300.2055 413.7713,-302.6188 413.0245,-295.6587"/>
<text text-anchor="start" x="576" y="-260" font-family="Helvetica,sans-Serif" font-size="10.00" fill="#000000">not (output_cnt != output_cnt_max) &#160;&#160;</text>
</g>
<!-- S_OUTPUT&#45;&gt;S_OUTPUT -->
<g id="edge17" class="edge transition">
<title>S_OUTPUT&#45;&gt;S_OUTPUT</title>
<path fill="none" stroke="#000000" d="M559.7986,-226.856C572.0518,-226.6655 581.5,-225.0469 581.5,-222 581.5,-219.8577 576.8289,-218.4214 569.7961,-217.6913"/>
<polygon fill="#000000" stroke="#000000" points="569.9749,-214.1959 559.7986,-217.144 569.5923,-221.1855 569.9749,-214.1959"/>
<text text-anchor="start" x="581.5" y="-219" font-family="Helvetica,sans-Serif" font-size="10.00" fill="#000000">output_cnt != output_cnt_max &#160;&#160;</text>
</g>
</g>
</svg>
